#N canvas 93 130 284 279 12;
#X obj 39 34 r~ \$1-sepia;
#X obj 38 198 *~ 1;
#X obj 38 225 throw~ ch-\$1;
#X obj 66 93 hsl 162 19 0 127 0 0 no-mast empty empty -2 -10 0 12 #dfdfdf #000000 #000000 0 1;
#X floatatom 63 175 12 0 0 0 - - - 0;
#X obj 63 147 pow 2;
#X obj 63 123 / 127;
#X obj 65 67 r \$1-kb-2;
#X connect 0 0 1 0;
#X connect 1 0 2 0;
#X connect 3 0 6 0;
#X connect 4 0 1 1;
#X connect 5 0 4 0;
#X connect 6 0 5 0;
#X connect 7 0 3 0;
