#N canvas 298 189 383 370 12;
#X obj 50 27 inlet;
#X obj 50 95 mtof;
#X obj 50 68 trigger f b;
#X floatatom 50 119 5 0 0 0 - - - 0;
#X obj 66 144 + 1;
#X obj 49 208 fm~ 1 2.5 2 7;
#X obj 66 174 fm~ 1 2.51 2 8;
#X obj 188 238 vline~;
#X obj 230 81 r mute-midimix;
#X msg 230 113 \$1 100;
#X obj 57 294 *~;
#X obj 57 326 outlet~;
#X floatatom 230 150 5 0 0 0 - - - 0;
#X msg 188 204 1 4000 \, 0 6000 8000;
#X connect 0 0 2 0;
#X connect 1 0 3 0;
#X connect 2 0 1 0;
#X connect 2 1 13 0;
#X connect 3 0 4 0;
#X connect 3 0 5 0;
#X connect 4 0 6 0;
#X connect 5 0 10 0;
#X connect 6 0 10 0;
#X connect 7 0 10 1;
#X connect 8 0 9 0;
#X connect 9 0 12 0;
#X connect 10 0 11 0;
#X connect 12 0 7 0;
#X connect 13 0 7 0;
