#N canvas 850 315 555 533 12;
#X declare -path abs;
#X obj 45 225 dac~ 1;
#X obj 182 223 dac~ 2;
#X obj 66 138 hsl 162 19 0 1 0 0 empty amp empty -2 -10 0 12 #fcfcfc #000000 #000000 0 1;
#X obj 267 195 tgl 19 0 empty empty empty 0 -10 0 12 #fcfcfc #000000 #000000 0 1;
#X msg 267 219 \; pd dsp \$1 \; amp 0.05;
#X obj 45 197 *~;
#X obj 182 197 *~;
#X obj 319 138 declare -path abs;
#X floatatom 86 57 5 0 0 0 - - - 0;
#X obj 146 72 + 1;
#X obj 90 26 hsl 162 19 50 400 0 0 empty empty empty -2 -10 0 12 #fcfcfc #000000 #000000 0 1;
#X obj 45 107 fm~ 1 2.5 2 7;
#X obj 182 107 fm~ 1 2.51 2 8;
#X connect 2 0 5 1;
#X connect 2 0 6 1;
#X connect 3 0 4 0;
#X connect 5 0 0 0;
#X connect 6 0 1 0;
#X connect 8 0 9 0;
#X connect 8 0 11 0;
#X connect 9 0 12 0;
#X connect 10 0 8 0;
#X connect 11 0 5 0;
#X connect 12 0 6 0;
