#N canvas 947 125 415 770 12;
#X floatatom 53 132 8 0 0 0 - - - 0;
#X text 114 134 (MIDI);
#X obj 52 21 r~ fm-\$1;
#X obj 51 616 *~;
#X obj 72 454 hsl 162 19 0 127 0 0 no-mast empty empty -2 -10 0 12 #dfdfdf #000000 #000000 0 1;
#X msg 69 562 \$1 10;
#X obj 69 588 line~;
#X floatatom 69 536 12 0 0 0 - - - 0;
#X obj 69 508 pow 2;
#X obj 69 484 / 127;
#X obj 51 671 throw~ ch-\$1;
#X obj 51 644 *~ 0.25;
#X obj 69 425 r \$1-kb-3;
#N canvas 187 131 243 425 range 0;
#X obj 33 25 inlet~;
#X obj 31 333 outlet~;
#X obj 33 154 hip~;
#X obj 88 80 mtof;
#X obj 33 179 hip~;
#X obj 101 193 mtof;
#X obj 33 286 lop~;
#X obj 33 311 lop~;
#X floatatom 88 106 5 0 0 0 - - - 0;
#X floatatom 101 221 8 0 0 0 - - - 0;
#X obj 88 24 loadbang;
#X msg 88 51 21;
#X text 129 53 A0;
#X msg 101 165 108;
#X text 133 166 C8;
#X text 31 361 tracking/analysis-range \; 27.5 - 4186 Hz;
#X connect 0 0 2 0;
#X connect 2 0 4 0;
#X connect 3 0 8 0;
#X connect 4 0 6 0;
#X connect 5 0 9 0;
#X connect 6 0 7 0;
#X connect 7 0 1 0;
#X connect 8 0 2 1;
#X connect 8 0 4 1;
#X connect 9 0 6 1;
#X connect 9 0 7 1;
#X connect 10 0 11 0;
#X connect 10 0 13 0;
#X connect 11 0 3 0;
#X connect 13 0 5 0;
#X restore 52 51 pd range sig~;
#X obj 52 219 change;
#X obj 52 246 t b f;
#X obj 52 270 f;
#X obj 52 294 + 1;
#X obj 52 342 pack;
#X listbox 53 370 20 0 0 0 - - - 0;
#X obj 52 318 mod 10;
#X obj 53 397 clone fm2~ 10;
#N canvas 121 159 450 300 decimal 0;
#X obj 155 204 int;
#X obj 156 15 inlet;
#X obj 155 262 outlet;
#X obj 253 179 /;
#X obj 253 117 pow;
#X obj 253 69 t b f;
#X msg 253 92 10;
#X obj 253 153 list prepend 1;
#X obj 155 175 * \$1;
#X obj 155 234 * \$1;
#X obj 155 38 t f b;
#X obj 253 47 int 2;
#X connect 0 0 9 0;
#X connect 1 0 10 0;
#X connect 3 0 9 1;
#X connect 4 0 7 0;
#X connect 4 0 8 1;
#X connect 5 0 6 0;
#X connect 5 1 4 1;
#X connect 6 0 4 0;
#X connect 7 0 3 0;
#X connect 8 0 0 0;
#X connect 9 0 2 0;
#X connect 10 0 8 0;
#X connect 10 1 11 0;
#X connect 11 0 5 0;
#X restore 53 161 pd decimal;
#X floatatom 53 193 5 0 0 0 - - - 0;
#X obj 52 90 sigmund~ -npts 4096 -stabletime 100 -growth 3 -vibrato 0.6 -minpower 20 notes evenness, f 45;
#X text 161 44 tracking/analysis-range \; 27.5 - 4186 Hz;
#N canvas 179 217 301 381 timed-gate 0;
#X obj 76 52 loadbang;
#X obj 160 26 inlet;
#X obj 43 25 inlet;
#X obj 146 169 sel 1;
#X msg 146 194 0;
#X msg 174 194 1;
#X obj 77 181 f 1;
#X obj 43 245 spigot;
#X obj 69 304 outlet;
#X obj 42 272 t b a;
#X text 39 335 (c) 2008 Achim Bornhoeft;
#X obj 160 126 delay 3000;
#X obj 84 107 r init;
#X connect 0 0 6 0;
#X connect 1 0 11 0;
#X connect 2 0 7 0;
#X connect 3 0 4 0;
#X connect 3 1 5 0;
#X connect 4 0 6 1;
#X connect 5 0 6 1;
#X connect 6 0 3 0;
#X connect 6 0 7 1;
#X connect 7 0 9 0;
#X connect 9 0 6 0;
#X connect 9 0 11 0;
#X connect 9 1 8 0;
#X connect 11 0 6 0;
#X connect 12 0 6 0;
#X restore 118 194 pd timed-gate;
#X connect 0 0 22 0;
#X connect 2 0 13 0;
#X connect 3 0 11 0;
#X connect 4 0 9 0;
#X connect 5 0 6 0;
#X connect 6 0 3 1;
#X connect 7 0 5 0;
#X connect 8 0 7 0;
#X connect 9 0 8 0;
#X connect 11 0 10 0;
#X connect 12 0 4 0;
#X connect 13 0 24 0;
#X connect 14 0 15 0;
#X connect 15 0 16 0;
#X connect 15 1 18 1;
#X connect 16 0 17 0;
#X connect 17 0 20 0;
#X connect 18 0 19 0;
#X connect 19 0 21 0;
#X connect 20 0 16 1;
#X connect 20 0 18 0;
#X connect 21 0 3 0;
#X connect 22 0 23 0;
#X connect 23 0 14 0;
#X connect 24 0 0 0;
