#N canvas 832 759 200 308 12;
#X obj 35 125 line;
#N canvas 301 555 200 247 guilabel 0;
#X msg 42 107 label \$1;
#X obj 43 26 inlet;
#X obj 41 184 outlet;
#X obj 42 79 makefilename %s;
#N canvas 371 178 187 217 round 0;
#X msg 107 79 10;
#X obj 107 56 loadbang;
#X obj 27 84 * 1;
#X obj 27 19 inlet;
#X obj 68 131 / 1;
#X msg 68 109 1;
#X obj 27 109 + 0.5;
#X obj 27 134 div;
#X obj 27 181 outlet;
#X obj 27 157 * 1;
#X obj 107 102 pow 2;
#X obj 27 45 t f b;
#X connect 0 0 10 0;
#X connect 1 0 0 0;
#X connect 2 0 6 0;
#X connect 3 0 11 0;
#X connect 4 0 9 1;
#X connect 5 0 4 0;
#X connect 6 0 7 0;
#X connect 7 0 9 0;
#X connect 9 0 8 0;
#X connect 10 0 2 1;
#X connect 10 0 4 1;
#X connect 10 0 5 0;
#X connect 11 0 2 0;
#X connect 11 1 0 0;
#X restore 42 56 pd round;
#X obj 53 133 s \$1-vol-no-s;
#X obj 51 157 r \$1-vol-no-r;
#X connect 0 0 2 0;
#X connect 1 0 4 0;
#X connect 3 0 0 0;
#X connect 4 0 3 0;
#X restore 82 172 pd guilabel;
#X floatatom 34 226 5 0 0 0 - - - 0;
#X msg 35 99 \$1 50;
#X obj 18 8 hsl 45 25 0 127 0 0 \$0-knb-r \$0-knb-s 0 7 14 0 11 #404040 #ffffff #ffffff 0 1;
#X obj 35 73 r \$1-knob-\$2;
#X obj 35 149 s \$0-knb-s;
#X obj 34 197 r \$0-knb-r;
#X obj 34 256 s \$1-kb-\$2;
#X connect 0 0 6 0;
#X connect 1 0 6 0;
#X connect 2 0 8 0;
#X connect 3 0 0 0;
#X connect 5 0 3 0;
#X connect 7 0 1 0;
#X connect 7 0 2 0;
#X coords 0 -1 1 1 80 40 2 0 0;
