#N canvas 692 281 360 317 12;
#X obj 30 48 vsl 30 119 0 127 0 0 \$0-vol-r \$0-vol-s 127 2 130 0 10 #ffffff #000000 #000000 0 1;
#X obj 12 18 cnv 10 40 10 empty \$1-name Main\ Vol 0 5 0 14 #ffffff #000000 0;
#N canvas 700 486 182 247 guilabel 0;
#X msg 43 114 label \$1;
#X obj 43 26 inlet;
#X obj 41 193 outlet;
#X obj 43 86 makefilename %s;
#N canvas 371 178 187 217 round 0;
#X msg 107 79 10;
#X obj 107 56 loadbang;
#X obj 27 84 * 1;
#X obj 27 19 inlet;
#X obj 68 131 / 1;
#X msg 68 109 1;
#X obj 27 109 + 0.5;
#X obj 27 134 div;
#X obj 27 181 outlet;
#X obj 27 157 * 1;
#X obj 107 102 pow 2;
#X obj 27 45 t f b;
#X connect 0 0 10 0;
#X connect 1 0 0 0;
#X connect 2 0 6 0;
#X connect 3 0 11 0;
#X connect 4 0 9 1;
#X connect 5 0 4 0;
#X connect 6 0 7 0;
#X connect 7 0 9 0;
#X connect 9 0 8 0;
#X connect 10 0 2 1;
#X connect 10 0 4 1;
#X connect 10 0 5 0;
#X connect 11 0 2 0;
#X connect 11 1 0 0;
#X restore 43 53 pd round;
#X obj 69 165 r \$0-vol-no-r;
#X obj 71 141 s \$0-vol-no-s;
#X connect 0 0 2 0;
#X connect 1 0 4 0;
#X connect 3 0 0 0;
#X connect 4 0 3 0;
#X restore 192 205 pd guilabel;
#X obj 145 182 s \$0-vol-s;
#X obj 144 230 r \$0-vol-r;
#X obj 145 135 line;
#X msg 146 109 \$1 50;
#X floatatom 145 158 5 0 0 0 - - - 0;
#X obj 200 48 loadbang;
#X obj 144 256 s main-vol;
#X msg 200 69 1;
#X obj 145 13 r main-volume;
#X connect 2 0 3 0;
#X connect 4 0 2 0;
#X connect 4 0 9 0;
#X connect 5 0 7 0;
#X connect 6 0 5 0;
#X connect 7 0 3 0;
#X connect 8 0 10 0;
#X connect 10 0 6 0;
#X connect 11 0 6 0;
#X coords 0 -1 1 1 90 190 2 0 0;
