#N canvas 456 87 151 599 12;
#X floatatom 32 51 5 0 0 0 - - - 0;
#X floatatom 32 132 5 0 0 0 - - - 0;
#X floatatom 30 218 5 0 0 0 - - - 0;
#X obj 28 274 notein;
#X obj 28 308 sel \$5;
#X obj 28 388 notein;
#X obj 28 437 tgl 19 0 empty empty empty 0 -10 0 12 #fcfcfc #000000 #000000 0 1;
#X floatatom 25 519 5 0 0 0 - - - 0;
#X obj 28 412 sel \$6;
#X obj 28 334 tgl 19 0 empty empty empty 0 -10 0 12 #fcfcfc #000000 #000000 0 1;
#X obj 32 74 s \$1-knob-1;
#X obj 32 27 ctlin \$2;
#X obj 32 108 ctlin \$3;
#X obj 30 194 ctlin \$4;
#X obj 25 495 ctlin \$7;
#X obj 32 158 s \$1-knob-2;
#X obj 30 244 s \$1-knob-3;
#X obj 28 360 s \$1-tgl-1;
#X obj 27 466 s \$1-tgl-2;
#X obj 25 546 s \$1-slider;
#X connect 0 0 10 0;
#X connect 1 0 15 0;
#X connect 2 0 16 0;
#X connect 3 0 4 0;
#X connect 4 0 9 0;
#X connect 5 0 8 0;
#X connect 6 0 18 0;
#X connect 7 0 19 0;
#X connect 8 0 6 0;
#X connect 9 0 17 0;
#X connect 11 0 0 0;
#X connect 12 0 1 0;
#X connect 13 0 2 0;
#X connect 14 0 7 0;
