#N canvas 373 403 628 255 12;
#X obj 20 13 midimix-col 1 16 17 18 1 3 19;
#X obj 19 43 midimix-col 2 20 21 22 4 6 23;
#X obj 19 74 midimix-col 3 24 25 26 7 9 27;
#X obj 18 102 midimix-col 4 28 29 30 10 12 31;
#X obj 17 130 midimix-col 5 46 47 48 13 15 49;
#X obj 16 158 midimix-col 6 50 51 52 16 18 53;
#X obj 16 188 midimix-col 7 54 55 56 19 21 57;
#X obj 15 216 midimix-col 8 58 59 60 22 24 61;
#X obj 266 170 ctlin 62;
#X floatatom 266 194 5 0 0 0 - - - 0;
#X floatatom 500 68 5 0 0 0 - - - 0;
#X obj 500 136 s mute-midimix;
#X obj 266 217 s main-volume;
#X obj 500 38 key;
#X obj 500 91 sel 109;
#X msg 499 113 0;
#X connect 8 0 9 0;
#X connect 9 0 12 0;
#X connect 10 0 14 0;
#X connect 13 0 10 0;
#X connect 14 0 15 0;
#X connect 15 0 11 0;
