#N canvas 453 309 628 255 12;
#X obj 20 13 midimix-col 1 16 17 18 1 3 19;
#X obj 19 43 midimix-col 2 20 21 22 4 6 23;
#X obj 19 74 midimix-col 3 24 25 26 7 9 27;
#X obj 18 102 midimix-col 4 28 29 30 10 12 31;
#X obj 17 130 midimix-col 5 46 47 48 13 15 49;
#X obj 16 158 midimix-col 6 50 51 52 16 18 53;
#X obj 16 188 midimix-col 7 54 55 56 19 21 57;
#X obj 15 216 midimix-col 8 58 59 60 22 24 61;
#X obj 266 170 ctlin 62;
#X floatatom 266 194 5 0 0 0 - - - 0;
#X floatatom 500 68 5 0 0 0 - - - 0;
#X obj 500 91 s mute-midimix;
#N canvas 318 131 388 706 stepper 1;
#X obj 118 460 f;
#X obj 195 459 +;
#X msg 243 282 -1;
#X msg 112 282 0;
#X obj 178 315 t b a;
#X obj 242 315 t b a;
#X obj 112 310 t b a b;
#X msg 179 419 1;
#X obj 35 314 t b f b;
#X msg 178 285 1;
#X obj 112 255 bng 19 250 50 0 empty empty empty 0 -10 0 12 #fcfcfc #000000 #000000;
#X obj 178 258 bng 19 250 50 0 empty empty empty 0 -10 0 12 #fcfcfc #000000 #000000;
#X obj 243 256 bng 19 250 50 0 empty empty empty 0 -10 0 12 #fcfcfc #000000 #000000;
#X floatatom 35 284 5 0 0 0 - - - 0;
#X obj 193 487 - 1;
#X floatatom 193 511 5 0 0 0 - - - 0;
#X obj 178 178 bng 19 250 50 0 empty empty empty 0 -10 0 12 #fcfcfc #000000 #000000;
#X obj 178 202 tgl 19 0 empty empty empty 0 -10 0 12 #fcfcfc #000000 #000000 0 1;
#X obj 178 226 sel 1;
#X obj 178 127 notein 1;
#X obj 178 151 sel 26;
#X obj 243 178 bng 19 250 50 0 empty empty empty 0 -10 0 12 #fcfcfc #000000 #000000;
#X obj 243 202 tgl 19 0 empty empty empty 0 -10 0 12 #fcfcfc #000000 #000000 0 1;
#X obj 243 226 sel 1;
#X obj 243 127 notein 1;
#X obj 243 151 sel 25;
#X obj 113 179 bng 19 250 50 0 empty empty empty 0 -10 0 12 #fcfcfc #000000 #000000;
#X obj 113 203 tgl 19 0 empty empty empty 0 -10 0 12 #fcfcfc #000000 #000000 0 1;
#X obj 113 227 sel 1;
#X obj 113 128 notein 1;
#X obj 113 152 sel 27;
#X obj 35 256 r set-cue;
#X obj 193 537 s cue-number;
#X obj 179 21 key;
#X obj 179 45 sel 32;
#X obj 244 71 key;
#X obj 244 95 sel 8;
#X text 290 95 backspace;
#X text 230 44 spacebar;
#X connect 0 0 1 0;
#X connect 1 0 0 1;
#X connect 1 0 14 0;
#X connect 2 0 5 0;
#X connect 3 0 6 0;
#X connect 4 0 0 0;
#X connect 4 1 1 1;
#X connect 5 0 0 0;
#X connect 5 1 1 1;
#X connect 6 0 0 0;
#X connect 6 1 0 1;
#X connect 6 2 7 0;
#X connect 7 0 1 1;
#X connect 8 1 0 1;
#X connect 8 2 7 0;
#X connect 9 0 4 0;
#X connect 10 0 3 0;
#X connect 11 0 9 0;
#X connect 12 0 2 0;
#X connect 13 0 8 0;
#X connect 14 0 15 0;
#X connect 15 0 32 0;
#X connect 16 0 17 0;
#X connect 17 0 18 0;
#X connect 18 0 11 0;
#X connect 19 0 20 0;
#X connect 20 0 16 0;
#X connect 21 0 22 0;
#X connect 22 0 23 0;
#X connect 23 0 12 0;
#X connect 24 0 25 0;
#X connect 25 0 21 0;
#X connect 26 0 27 0;
#X connect 27 0 28 0;
#X connect 28 0 10 0;
#X connect 29 0 30 0;
#X connect 30 0 26 0;
#X connect 31 0 13 0;
#X connect 33 0 34 0;
#X connect 34 0 11 0;
#X connect 35 0 36 0;
#X connect 36 0 12 0;
#X restore 497 167 pd stepper;
#X obj 500 38 ctlin 26;
#X obj 266 217 s main-volume;
#X connect 8 0 9 0;
#X connect 9 0 14 0;
#X connect 10 0 11 0;
#X connect 13 0 10 0;
