#N canvas 800 290 450 382 12;
#X obj 162 23 r track-cue;
#X floatatom 162 47 5 0 0 0 - - - 0;
#X obj 220 144 makefilename \$1-nachbild.wav;
#X symbolatom 193 181 16 0 0 0 - - - 0;
#X obj 220 117 bng 19 250 50 0 empty empty empty 0 -10 0 12 #fcfcfc #000000 #000000;
#X obj 162 70 sel \$1;
#X obj 162 94 t b b;
#X msg 192 202 open \$1;
#X obj 163 161 tgl 19 0 empty empty empty 0 -10 0 12 #fcfcfc #000000 #000000 0 1;
#X obj 46 21 r mute-midimix;
#X obj 220 91 r init;
#X floatatom 46 45 5 0 0 0 - - - 0;
#X obj 203 234 print;
#X msg 162 118 1;
#X obj 163 259 readsf~ 8, f 19;
#X obj 163 303 snake~ in 8, f 17;
#X obj 163 334 throw~ 8ch-bus;
#X connect 0 0 1 0;
#X connect 1 0 5 0;
#X connect 2 0 3 0;
#X connect 3 0 7 0;
#X connect 4 0 2 0;
#X connect 5 0 6 0;
#X connect 6 0 13 0;
#X connect 6 1 3 0;
#X connect 7 0 12 0;
#X connect 7 0 14 0;
#X connect 8 0 14 0;
#X connect 9 0 11 0;
#X connect 10 0 4 0;
#X connect 11 0 8 0;
#X connect 13 0 8 0;
#X connect 14 0 15 0;
#X connect 14 1 15 1;
#X connect 14 2 15 2;
#X connect 14 3 15 3;
#X connect 14 4 15 4;
#X connect 14 5 15 5;
#X connect 14 6 15 6;
#X connect 14 7 15 7;
#X connect 15 0 16 0;
