#N canvas 772 443 498 458 10;
#X obj 235 143 f;
#X obj 263 143 + 1;
#X floatatom 337 221 1 0 0 0 - - - 36;
#X obj 291 143 mod 2;
#X msg 320 72 2;
#X obj 162 191 noise~;
#X obj 263 172 t b f;
#X obj 210 267 vline~;
#X obj 162 310 *~;
#X msg 290 305 set \$1;
#X obj 291 423 dac~ \$1;
#X obj 236 121 metro 1500;
#X msg 212 243 0 \, 1 80 \, 0 80 1000;
#X obj 162 216 *~ 0.15;
#X obj 337 271 print out;
#X obj 54 5 cnv 16 106 64 empty empty Speaker 20 12 0 14 #ffffff #404040 0;
#X obj 23 49 tgl 20 0 speaker-out-dummy speaker-in-dummy on/off -5 -8 0 12 #ffc7c6 #ff0400 #000000 0 1;
#X obj 71 49 hradio 20 1 1 2 speaker-radio-send-dummy speaker-radio-receive-dummy 2\ \ 8\ ch 4 -8 0 13 #fcfcfc #ff0400 #000000 1;
#X floatatom 155 30 1 0 0 0 - speaker-number speaker-number-send-dummy 36;
#X obj 372 183 s speaker-number;
#X obj 320 44 sel 0 1;
#X msg 353 72 8;
#X obj 71 125 s speaker-setup;
#X obj 175 350 *~ 1;
#X obj 196 301 r main-vol;
#X obj 196 325 / 127;
#X obj 1 5 cnv 16 20 20 empty empty Test 20 12 0 14 #ffffff #404040 0;
#X obj 137 6 cnv 16 20 20 empty empty Ch 20 12 0 14 #ffffff #404040 0;
#X connect 0 0 1 0;
#X connect 1 0 3 0;
#X connect 1 0 6 0;
#X connect 2 0 9 0;
#X connect 2 0 14 0;
#X connect 2 0 19 0;
#X connect 3 0 0 1;
#X connect 4 0 3 1;
#X connect 5 0 13 0;
#X connect 6 0 12 0;
#X connect 6 1 2 0;
#X connect 7 0 8 1;
#X connect 8 0 23 0;
#X connect 9 0 10 0;
#X connect 11 0 0 0;
#X connect 12 0 7 0;
#X connect 13 0 8 0;
#X connect 16 0 11 0;
#X connect 17 0 20 0;
#X connect 17 0 22 0;
#X connect 20 0 4 0;
#X connect 20 1 21 0;
#X connect 21 0 3 1;
#X connect 23 0 10 0;
#X connect 24 0 25 0;
#X connect 25 0 23 1;
#X coords 0 -1 1 1 200 80 2 0 0;
