#N canvas 772 443 498 458 10;
#X obj 235 143 f;
#X obj 263 143 + 1;
#X floatatom 337 221 1 0 0 0 - - - 36;
#X msg 353 72 4;
#X msg 386 73 8;
#X obj 291 143 mod 2;
#X msg 320 72 2;
#X obj 162 191 noise~;
#X obj 263 172 t b f;
#X obj 210 267 vline~;
#X obj 162 310 *~;
#X msg 290 305 set \$1;
#X obj 290 356 dac~ \$1;
#X obj 236 121 metro 1500;
#X msg 212 243 0 \, 1 80 \, 0 80 1000;
#X obj 320 44 sel 0 1 2;
#X obj 162 216 *~ 0.15;
#X obj 419 72 f;
#X floatatom 419 94 5 0 0 0 - - - 0;
#X obj 337 271 print out;
#X obj 15 6 cnv 16 106 64 empty empty Speaker\ Test 20 12 0 14 #ffffff #404040 0;
#X obj 23 49 tgl 20 0 speaker-out-dummy speaker-in-dummy on/off -5 -8 0 12 #fcfcfc #000000 #000000 0 1;
#X obj 71 49 hradio 20 1 1 3 speaker-radio-send-dummy speaker-radio-receive-dummy 2\ 4\ 8\ ch 4 -8 0 13 #fcfcfc #000000 #000000 0;
#X floatatom 163 24 1 0 0 0 - speaker-number speaker-number-send-dummy 36;
#X obj 372 183 s speaker-number;
#X connect 0 0 1 0;
#X connect 1 0 5 0;
#X connect 1 0 8 0;
#X connect 2 0 11 0;
#X connect 2 0 19 0;
#X connect 2 0 24 0;
#X connect 3 0 5 1;
#X connect 4 0 5 1;
#X connect 5 0 0 1;
#X connect 6 0 5 1;
#X connect 7 0 16 0;
#X connect 8 0 14 0;
#X connect 8 1 2 0;
#X connect 9 0 10 1;
#X connect 10 0 12 0;
#X connect 11 0 12 0;
#X connect 13 0 0 0;
#X connect 14 0 9 0;
#X connect 15 0 6 0;
#X connect 15 1 3 0;
#X connect 15 2 4 0;
#X connect 15 3 17 0;
#X connect 16 0 10 0;
#X connect 17 0 18 0;
#X connect 18 0 5 1;
#X connect 21 0 13 0;
#X connect 22 0 15 0;
#X coords 0 -1 1 1 200 80 2 0 0;
