#N canvas 308 264 814 413 12;
#X declare -path tracks -path abs;
#N canvas 256 295 1124 418 nachbild 1;
#X obj 818 32 midimix;
#X obj 365 57 nbx 4 30 -1e+37 1e+37 0 0 set-cue no-output Set\ Cue 0 -14 0 24 #ffc7c6 #000000 #000000 0 256;
#X floatatom 366 134 5 0 0 2 Cue cue-number track-cue 24;
#X obj 40 30 cnv 19 76 76 empty empty Nachbild\ (2022) 20 12 0 24 #ffffff #404040 0;
#N canvas 687 267 621 458 colors 0;
#X obj 24 56 tgl 19 0 empty empty empty 0 -10 0 12 #fcfcfc #000000 #000000 0 1;
#X obj 24 80 sel 0;
#X obj 87 27 key;
#X floatatom 87 56 5 0 0 0 - - - 0;
#X obj 87 81 sel 27;
#X msg 69 280 browse https://www.youtube.com/watch?v=QlEhy0vVPRI;
#X obj 58 306 pdcontrol;
#X msg 44 254 browse https://htmlcolorcodes.com;
#X msg 23 118 \; pd colors #ffffff #333333 #ff0000 \;;
#X msg 48 181 \; pd colors #000000 #9e9e9e #0015ff \;;
#X msg 293 117 \; pd colors #000000 #ffffff #0015ff \;;
#X connect 0 0 1 0;
#X connect 1 0 9 0;
#X connect 1 1 8 0;
#X connect 2 0 3 0;
#X connect 3 0 4 0;
#X connect 4 0 0 0;
#X connect 5 0 6 0;
#X connect 7 0 6 0;
#X restore 883 31 pd colors;
#X obj 41 54 cnv 19 76 76 empty empty Achim\ Bornhoeft 20 12 0 16 #ffffff #404040 0;
#N canvas 63 101 450 300 inits 0;
#X obj 99 47 declare -path tracks -path abs;
#X restore 957 31 pd inits;
#X obj 836 166 clone read-snd-clone 15;
#N canvas 891 199 295 545 mixer 0;
#X obj 41 225 *~;
#X obj 62 63 hsl 162 19 0 127 0 0 no-mast main-vol empty -2 -10 0 12 #dfdfdf #000000 #000000 0 1;
#X msg 59 171 \$1 10;
#X obj 59 197 line~;
#X floatatom 59 145 12 0 0 0 - - - 0;
#X obj 59 117 pow 2;
#X obj 59 93 / 127;
#X obj 43 33 catch~ 8ch-bus 8;
#X obj 41 257 snake~ out 8, f 18;
#X obj 43 463 s~ ch-1;
#X obj 164 289 s~ ch-8;
#X obj 146 312 s~ ch-7;
#X obj 129 338 s~ ch-6;
#X obj 112 363 s~ ch-5;
#X obj 94 388 s~ ch-4;
#X obj 78 412 s~ ch-3;
#X obj 60 437 s~ ch-2;
#X connect 0 0 8 0;
#X connect 1 0 6 0;
#X connect 2 0 3 0;
#X connect 3 0 0 1;
#X connect 4 0 2 0;
#X connect 5 0 4 0;
#X connect 6 0 5 0;
#X connect 7 0 0 0;
#X connect 8 0 9 0;
#X connect 8 1 16 0;
#X connect 8 2 15 0;
#X connect 8 3 14 0;
#X connect 8 4 13 0;
#X connect 8 5 12 0;
#X connect 8 6 11 0;
#X connect 8 7 10 0;
#X restore 836 204 pd mixer;
#X obj 837 104 hradio 19 1 0 12 empty empty empty 0 -10 0 12 #fcfcfc #000000 #000000 0;
#N canvas 63 101 211 236 vis 0;
#X obj 45 29 inlet;
#X obj 45 54 t f b;
#X obj 76 77 tgl 19 0 empty empty empty 0 -10 0 12 #fcfcfc #000000 #000000 0 1;
#X obj 45 104 pack f f;
#X msg 45 134 vis \$1 \$2;
#X obj 46 162 outlet;
#X connect 0 0 1 0;
#X connect 1 0 3 0;
#X connect 1 1 2 0;
#X connect 2 0 3 1;
#X connect 3 0 4 0;
#X connect 4 0 5 0;
#X restore 837 131 pd vis;
#X obj 834 304 clone -s 1 output~ 8;
#X obj 834 246 hradio 19 1 0 8 empty empty empty 0 -10 0 12 #fcfcfc #000000 #000000 0;
#N canvas 63 101 211 236 vis 0;
#X obj 45 29 inlet;
#X obj 44 78 + 1;
#X obj 45 54 t f b;
#X obj 76 77 tgl 19 0 empty empty empty 0 -10 0 12 #fcfcfc #000000 #000000 0 1;
#X obj 45 104 pack f f;
#X msg 45 134 vis \$1 \$2;
#X obj 46 162 outlet;
#X connect 0 0 2 0;
#X connect 1 0 4 0;
#X connect 2 0 1 0;
#X connect 2 1 3 0;
#X connect 3 0 4 1;
#X connect 4 0 5 0;
#X connect 5 0 6 0;
#X restore 834 273 pd vis;
#X obj 664 195 main-out~;
#N canvas 798 179 377 521 speaker 0;
#X obj 26 44 r~ 1-out;
#X obj 46 69 r~ 2-out;
#X obj 65 96 r~ 3-out;
#X obj 85 124 r~ 4-out;
#X obj 104 149 r~ 5-out;
#X obj 123 173 r~ 6-out;
#X obj 142 199 r~ 7-out;
#X obj 162 221 r~ 8-out;
#X obj 92 284 r speaker-setup;
#X obj 25 417 dac~ 1 1 2 2 2 2 1 1;
#X obj 25 248 snake~ in 8, f 20;
#X obj 25 385 snake~ out 8, f 20;
#X obj 195 384 snake~ out 8, f 20;
#X obj 195 417 dac~ 1 2 3 4 5 6 7 8;
#N canvas 179 217 382 502 switch~ 0;
#X obj 59 99 inlet~;
#X obj 105 405 *~;
#X obj 192 408 *~;
#X obj 123 98 inlet;
#X text 123 79 toggle;
#X obj 192 430 outlet~;
#X obj 105 430 outlet~;
#X text 28 28 switch between two audio outputs;
#X obj 207 316 line~;
#X obj 207 344 cos~;
#X obj 124 314 line~;
#X obj 124 342 cos~;
#X obj 123 288 pack;
#X obj 122 233 t f b;
#X obj 207 289 pack;
#X obj 207 261 - 0.25;
#X obj 205 233 t f b;
#X obj 122 183 / 4;
#X obj 122 156 line;
#X msg 166 260 5;
#X msg 257 262 5;
#X text 29 46 with toggle on it switches to 2nd output;
#X text 59 81 input;
#X connect 0 0 1 0;
#X connect 0 0 2 0;
#X connect 1 0 6 0;
#X connect 2 0 5 0;
#X connect 3 0 18 0;
#X connect 8 0 9 0;
#X connect 9 0 2 1;
#X connect 10 0 11 0;
#X connect 11 0 1 1;
#X connect 12 0 10 0;
#X connect 13 0 12 0;
#X connect 13 1 19 0;
#X connect 14 0 8 0;
#X connect 15 0 14 0;
#X connect 16 0 15 0;
#X connect 16 1 20 0;
#X connect 17 0 13 0;
#X connect 17 0 16 0;
#X connect 18 0 17 0;
#X connect 19 0 12 1;
#X connect 20 0 14 1;
#X restore 25 346 pd switch~;
#X floatatom 92 308 5 0 0 0 - - - 0;
#X connect 0 0 10 0;
#X connect 1 0 10 1;
#X connect 2 0 10 2;
#X connect 3 0 10 3;
#X connect 4 0 10 4;
#X connect 5 0 10 5;
#X connect 6 0 10 6;
#X connect 7 0 10 7;
#X connect 8 0 15 0;
#X connect 10 0 14 0;
#X connect 11 0 9 0;
#X connect 11 1 9 1;
#X connect 11 2 9 2;
#X connect 11 3 9 3;
#X connect 11 4 9 4;
#X connect 11 5 9 5;
#X connect 11 6 9 6;
#X connect 11 7 9 7;
#X connect 12 0 13 0;
#X connect 12 1 13 1;
#X connect 12 2 13 2;
#X connect 12 3 13 3;
#X connect 12 4 13 4;
#X connect 12 5 13 5;
#X connect 12 6 13 6;
#X connect 12 7 13 7;
#X connect 14 0 11 0;
#X connect 14 1 12 0;
#X connect 15 0 14 1;
#X restore 833 353 pd speaker;
#X obj 24 194 output~gui 1 Ch-1;
#X obj 104 194 output~gui 2 Ch-2;
#X obj 184 194 output~gui 3 Ch-3;
#X obj 264 194 output~gui 4 Ch-4;
#N canvas 785 316 260 293 block-keys 0;
#X obj 100 100 tgl 15 0 block-dummy-s block-dummy-r block_keys 20 8 0 10 #b8b8b8 #fc0400 #000000 0 1;
#X obj 100 127 expr ($f1-1)*-1;
#X obj 100 155 tgl 15 0 empty empty empty 17 7 0 10 #fcfcfc #000000 #000000 0 1;
#X obj 100 181 s block-keys;
#X obj 100 51 loadbang;
#X msg 100 75 0;
#X connect 0 0 1 0;
#X connect 1 0 2 0;
#X connect 2 0 3 0;
#X connect 4 0 5 0;
#X connect 5 0 0 0;
#X coords 0 -1 1 1 15 15 2 100 100;
#X restore 1029 33 pd block-keys;
#X obj 344 194 output~gui 5 Ch-5;
#X obj 424 194 output~gui 6 Ch-6;
#X obj 504 194 output~gui 7 Ch-7;
#X obj 584 194 output~gui 8 Ch-8;
#N canvas 801 339 323 258 dsp 0;
#X obj 59 140 s start-stop-in;
#X obj 59 170 r start-stop-out;
#X text 178 140 -> start-stop tgl;
#X text 183 170 <- start-stop tgl;
#X obj 59 38 key;
#X floatatom 59 62 5 0 0 0 - - - 0;
#X obj 59 85 sel 8218;
#X obj 59 114 tgl 15 0 empty empty empty 17 7 0 10 #fcfcfc #000000 #000000 0 1;
#X obj 104 60 r on-off;
#X msg 59 200 \; pd dsp \$1 \;;
#X text 124 84 option (alt) - s;
#X connect 1 0 9 0;
#X connect 4 0 5 0;
#X connect 5 0 6 0;
#X connect 6 0 7 0;
#X connect 7 0 0 0;
#X connect 8 0 7 0;
#X restore 819 61 pd dsp;
#X obj 673 54 tgl 100 0 start-stop-out start-stop-in Start-Stop/Mute 0 -10 0 12 #404040 #fc0400 #000000 0 1;
#X obj 58 91 speaker-test;
#X connect 9 0 10 0;
#X connect 10 0 7 0;
#X connect 12 0 13 0;
#X connect 13 0 11 0;
#X coords 0 -1 1 1 800 400 2 5 5;
#X restore 5 5 pd nachbild;
