#N canvas 257 124 786 535 12;
#X declare -path tracks -path abs;
#N canvas 295 151 1079 597 nachbild 0;
#X obj 796 98 midimix;
#X obj 294 64 nbx 3 30 -1e+37 1e+37 0 0 set-cue no-output Set\ Cue 0 -14 0 24 #c6ffc7 #000000 #000000 0 256;
#X floatatom 295 141 4 0 0 2 Cue cue-number track-cue 24;
#X obj 40 30 cnv 19 76 76 empty empty Nachbild\ (2022) 20 12 0 24 #ffffff #404040 0;
#X obj 41 54 cnv 19 76 76 empty empty Achim\ Bornhoeft 20 12 0 16 #ffffff #404040 0;
#X obj 798 181 hradio 19 1 0 13 empty empty empty 0 -10 0 12 #fcfcfc #000000 #000000 0;
#N canvas 63 101 211 236 vis 0;
#X obj 45 29 inlet;
#X obj 45 54 t f b;
#X obj 76 77 tgl 19 0 empty empty empty 0 -10 0 12 #fcfcfc #000000 #000000 0 1;
#X obj 45 104 pack f f;
#X msg 45 134 vis \$1 \$2;
#X obj 46 162 outlet;
#X connect 0 0 1 0;
#X connect 1 0 3 0;
#X connect 1 1 2 0;
#X connect 2 0 3 1;
#X connect 3 0 4 0;
#X connect 4 0 5 0;
#X restore 798 208 pd vis;
#X obj 794 527 clone -s 1 output~ 8;
#X obj 794 471 hradio 19 1 0 8 empty empty empty 0 -10 0 12 #fcfcfc #000000 #000000 0;
#N canvas 63 101 211 236 vis 0;
#X obj 45 29 inlet;
#X obj 44 78 + 1;
#X obj 45 54 t f b;
#X obj 76 77 tgl 19 0 empty empty empty 0 -10 0 12 #fcfcfc #000000 #000000 0 1;
#X obj 45 104 pack f f;
#X msg 45 134 vis \$1 \$2;
#X obj 46 162 outlet;
#X connect 0 0 2 0;
#X connect 1 0 4 0;
#X connect 2 0 1 0;
#X connect 2 1 3 0;
#X connect 3 0 4 1;
#X connect 4 0 5 0;
#X connect 5 0 6 0;
#X restore 794 498 pd vis;
#X obj 664 313 main-out~;
#N canvas 638 38 367 626 speaker 0;
#X obj 91 464 r speaker-setup;
#X obj 24 586 dac~ 1 1 2 2 2 2 1 1;
#X obj 25 248 snake~ in 8, f 20;
#X obj 24 554 snake~ out 8, f 20;
#X obj 194 553 snake~ out 8, f 20;
#X obj 194 586 dac~ 1 2 3 4 5 6 7 8;
#N canvas 179 217 382 502 switch~ 0;
#X obj 59 99 inlet~;
#X obj 105 405 *~;
#X obj 192 408 *~;
#X obj 123 98 inlet;
#X text 123 79 toggle;
#X obj 192 430 outlet~;
#X obj 105 430 outlet~;
#X text 28 28 switch between two audio outputs;
#X obj 207 316 line~;
#X obj 207 344 cos~;
#X obj 124 314 line~;
#X obj 124 342 cos~;
#X obj 123 288 pack;
#X obj 122 233 t f b;
#X obj 207 289 pack;
#X obj 207 261 - 0.25;
#X obj 205 233 t f b;
#X obj 122 183 / 4;
#X obj 122 156 line;
#X msg 166 260 5;
#X msg 257 262 5;
#X text 29 46 with toggle on it switches to 2nd output;
#X text 59 81 input;
#X connect 0 0 1 0;
#X connect 0 0 2 0;
#X connect 1 0 6 0;
#X connect 2 0 5 0;
#X connect 3 0 18 0;
#X connect 8 0 9 0;
#X connect 9 0 2 1;
#X connect 10 0 11 0;
#X connect 11 0 1 1;
#X connect 12 0 10 0;
#X connect 13 0 12 0;
#X connect 13 1 19 0;
#X connect 14 0 8 0;
#X connect 15 0 14 0;
#X connect 16 0 15 0;
#X connect 16 1 20 0;
#X connect 17 0 13 0;
#X connect 17 0 16 0;
#X connect 18 0 17 0;
#X connect 19 0 12 1;
#X connect 20 0 14 1;
#X restore 24 515 pd switch~;
#X floatatom 91 488 5 0 0 0 - - - 0;
#X obj 26 44 catch~ 1-out;
#X obj 46 69 catch~ 2-out;
#X obj 65 96 catch~ 3-out;
#X obj 85 124 catch~ 4-out;
#X obj 104 149 catch~ 5-out;
#X obj 123 173 catch~ 6-out;
#X obj 142 199 catch~ 7-out;
#X obj 162 221 catch~ 8-out;
#X obj 24 439 *~;
#X obj 45 277 hsl 162 19 0 127 0 0 no-mast main-vol empty -2 -10 0 12 #dfdfdf #000000 #000000 0 1;
#X msg 42 385 \$1 10;
#X obj 42 411 line~;
#X floatatom 42 359 12 0 0 0 - - - 0;
#X obj 42 331 pow 2;
#X obj 42 307 / 127;
#X connect 0 0 7 0;
#X connect 2 0 16 0;
#X connect 3 0 1 0;
#X connect 3 1 1 1;
#X connect 3 2 1 2;
#X connect 3 3 1 3;
#X connect 3 4 1 4;
#X connect 3 5 1 5;
#X connect 3 6 1 6;
#X connect 3 7 1 7;
#X connect 4 0 5 0;
#X connect 4 1 5 1;
#X connect 4 2 5 2;
#X connect 4 3 5 3;
#X connect 4 4 5 4;
#X connect 4 5 5 5;
#X connect 4 6 5 6;
#X connect 4 7 5 7;
#X connect 6 0 3 0;
#X connect 6 1 4 0;
#X connect 7 0 6 1;
#X connect 8 0 2 0;
#X connect 9 0 2 1;
#X connect 10 0 2 2;
#X connect 11 0 2 3;
#X connect 12 0 2 4;
#X connect 13 0 2 5;
#X connect 14 0 2 6;
#X connect 15 0 2 7;
#X connect 16 0 6 0;
#X connect 17 0 22 0;
#X connect 18 0 19 0;
#X connect 19 0 16 1;
#X connect 20 0 18 0;
#X connect 21 0 20 0;
#X connect 22 0 21 0;
#X restore 793 557 pd speaker;
#X obj 24 313 output~gui 1 Ch-1;
#X obj 104 313 output~gui 2 Ch-2;
#X obj 184 313 output~gui 3 Ch-3;
#X obj 264 313 output~gui 4 Ch-4;
#N canvas 785 316 260 293 block-keys 0;
#X obj 100 100 tgl 15 0 block-dummy-s block-dummy-r block_keys 20 8 0 10 #b8b8b8 #fc0400 #000000 0 1;
#X obj 100 127 expr ($f1-1)*-1;
#X obj 100 155 tgl 15 0 empty empty empty 17 7 0 10 #fcfcfc #000000 #000000 0 1;
#X obj 100 181 s block-keys;
#X obj 100 51 loadbang;
#X msg 100 75 0;
#X connect 0 0 1 0;
#X connect 1 0 2 0;
#X connect 2 0 3 0;
#X connect 4 0 5 0;
#X connect 5 0 0 0;
#X coords 0 -1 1 1 15 15 2 100 100;
#X restore 793 16 pd block-keys;
#X obj 344 313 output~gui 5 Ch-5;
#X obj 424 313 output~gui 6 Ch-6;
#X obj 504 313 output~gui 7 Ch-7;
#X obj 584 313 output~gui 8 Ch-8;
#N canvas 801 339 323 258 dsp 0;
#X obj 59 140 s start-stop-in;
#X obj 59 170 r start-stop-out;
#X text 178 140 -> start-stop tgl;
#X text 183 170 <- start-stop tgl;
#X obj 59 38 key;
#X floatatom 59 62 5 0 0 0 - - - 0;
#X obj 59 85 sel 8218;
#X obj 59 114 tgl 15 0 empty empty empty 17 7 0 10 #fcfcfc #000000 #000000 0 1;
#X obj 104 60 r on-off;
#X msg 59 200 \; pd dsp \$1 \;;
#X text 124 84 option (alt) - s;
#X connect 1 0 9 0;
#X connect 4 0 5 0;
#X connect 5 0 6 0;
#X connect 6 0 7 0;
#X connect 7 0 0 0;
#X connect 8 0 7 0;
#X restore 796 125 pd dsp;
#X obj 413 72 tgl 100 0 start-stop-out start-stop-in Start-Stop/Mute 0 -10 0 12 #c6ffc7 #fc0400 #000000 0 1;
#X obj 543 92 speaker-test;
#N canvas 318 131 388 706 stepper 0;
#X obj 118 460 f;
#X obj 195 459 +;
#X msg 243 282 -1;
#X msg 112 282 0;
#X obj 178 315 t b a;
#X obj 242 315 t b a;
#X obj 112 310 t b a b;
#X msg 179 419 1;
#X obj 35 314 t b f b;
#X msg 178 285 1;
#X obj 112 255 bng 19 250 50 0 empty empty empty 0 -10 0 12 #fcfcfc #000000 #000000;
#X obj 178 258 bng 19 250 50 0 empty empty empty 0 -10 0 12 #fcfcfc #000000 #000000;
#X obj 243 256 bng 19 250 50 0 empty empty empty 0 -10 0 12 #fcfcfc #000000 #000000;
#X floatatom 35 284 5 0 0 0 - - - 0;
#X obj 193 487 - 1;
#X floatatom 193 511 5 0 0 0 - - - 0;
#X obj 178 178 bng 19 250 50 0 empty empty empty 0 -10 0 12 #fcfcfc #000000 #000000;
#X obj 178 202 tgl 19 0 empty empty empty 0 -10 0 12 #fcfcfc #000000 #000000 0 1;
#X obj 178 226 sel 1;
#X obj 178 127 notein 1;
#X obj 178 151 sel 26;
#X obj 243 178 bng 19 250 50 0 empty empty empty 0 -10 0 12 #fcfcfc #000000 #000000;
#X obj 243 202 tgl 19 0 empty empty empty 0 -10 0 12 #fcfcfc #000000 #000000 0 1;
#X obj 243 226 sel 1;
#X obj 243 127 notein 1;
#X obj 243 151 sel 25;
#X obj 113 179 bng 19 250 50 0 empty empty empty 0 -10 0 12 #fcfcfc #000000 #000000;
#X obj 113 203 tgl 19 0 empty empty empty 0 -10 0 12 #fcfcfc #000000 #000000 0 1;
#X obj 113 227 sel 1;
#X obj 113 128 notein 1;
#X obj 113 152 sel 27;
#X obj 35 256 r set-cue;
#X obj 193 537 s cue-number;
#X obj 179 21 key;
#X obj 179 45 sel 32;
#X obj 244 71 key;
#X obj 244 95 sel 8;
#X text 290 95 backspace;
#X text 230 44 spacebar;
#X connect 0 0 1 0;
#X connect 1 0 14 0;
#X connect 1 0 0 1;
#X connect 2 0 5 0;
#X connect 3 0 6 0;
#X connect 4 0 0 0;
#X connect 4 1 1 1;
#X connect 5 0 0 0;
#X connect 5 1 1 1;
#X connect 6 0 0 0;
#X connect 6 1 0 1;
#X connect 6 2 7 0;
#X connect 7 0 1 1;
#X connect 8 1 0 1;
#X connect 8 2 7 0;
#X connect 9 0 4 0;
#X connect 10 0 3 0;
#X connect 11 0 9 0;
#X connect 12 0 2 0;
#X connect 13 0 8 0;
#X connect 14 0 15 0;
#X connect 15 0 32 0;
#X connect 16 0 17 0;
#X connect 17 0 18 0;
#X connect 18 0 11 0;
#X connect 19 0 20 0;
#X connect 20 0 16 0;
#X connect 21 0 22 0;
#X connect 22 0 23 0;
#X connect 23 0 12 0;
#X connect 24 0 25 0;
#X connect 25 0 21 0;
#X connect 26 0 27 0;
#X connect 27 0 28 0;
#X connect 28 0 10 0;
#X connect 29 0 30 0;
#X connect 30 0 26 0;
#X connect 31 0 13 0;
#X connect 33 0 34 0;
#X connect 34 0 11 0;
#X connect 35 0 36 0;
#X connect 36 0 12 0;
#X restore 796 151 pd stepper;
#X obj 795 386 hradio 19 1 0 8 empty empty empty 0 -10 0 12 #fcfcfc #000000 #000000 0;
#X obj 796 441 clone -s 1 inst-fm 8;
#N canvas 63 101 211 236 vis 0;
#X obj 45 29 inlet;
#X obj 44 78 + 1;
#X obj 45 54 t f b;
#X obj 76 77 tgl 19 0 empty empty empty 0 -10 0 12 #fcfcfc #000000 #000000 0 1;
#X obj 45 104 pack f f;
#X msg 45 134 vis \$1 \$2;
#X obj 46 162 outlet;
#X connect 0 0 2 0;
#X connect 1 0 4 0;
#X connect 2 0 1 0;
#X connect 2 1 3 0;
#X connect 3 0 4 1;
#X connect 4 0 5 0;
#X connect 5 0 6 0;
#X restore 796 413 pd vis;
#N canvas 377 264 180 164 set-0 0;
#X obj 40 30 key;
#X floatatom 40 54 5 0 0 0 - - - 0;
#X obj 40 77 sel 48;
#X obj 40 101 s no-output;
#X connect 0 0 1 0;
#X connect 1 0 2 0;
#X connect 2 0 3 0;
#X restore 881 150 pd set-0;
#N canvas 150 188 291 229 init 0;
#X obj 33 33 inlet;
#X obj 48 67 loadbang;
#X obj 33 102 s init;
#X obj 31 145 declare -path tracks -path abs;
#X connect 0 0 2 0;
#X connect 1 0 2 0;
#X restore 795 70 pd init;
#X obj 795 42 bng 19 250 50 0 empty empty empty 0 -10 0 12 #fcfcfc #000000 #000000;
#X obj 798 235 clone read-snd-clone 13;
#N canvas 92 130 450 300 TODO 0;
#N canvas 753 496 621 458 colors 0;
#X obj 24 56 tgl 19 0 empty empty empty 0 -10 0 12 #fcfcfc #000000 #000000 0 1;
#X obj 24 80 sel 0;
#X obj 87 27 key;
#X floatatom 87 56 5 0 0 0 - - - 0;
#X obj 87 81 sel 27;
#X msg 69 280 browse https://www.youtube.com/watch?v=QlEhy0vVPRI;
#X obj 58 306 pdcontrol;
#X msg 44 254 browse https://htmlcolorcodes.com;
#X msg 23 118 \; pd colors #ffffff #333333 #ff0000 \;;
#X msg 48 181 \; pd colors #000000 #9e9e9e #0015ff \;;
#X msg 293 117 \; pd colors #000000 #ffffff #0015ff \;;
#X connect 0 0 1 0;
#X connect 1 0 9 0;
#X connect 1 1 8 0;
#X connect 2 0 3 0;
#X connect 3 0 4 0;
#X connect 5 0 6 0;
#X connect 7 0 6 0;
#X restore 47 42 pd colors;
#X text 53 100 add a state saving possibility to the patch to reset the midimix positions.;
#X restore 958 20 pd TODO;
#N canvas 769 131 492 633 sepia 0;
#X obj 162 23 r track-cue;
#X floatatom 162 47 5 0 0 0 - - - 0;
#X symbolatom 193 181 16 0 0 0 - - - 0;
#X obj 220 117 bng 19 250 50 0 empty empty empty 0 -10 0 12 #fcfcfc #000000 #000000;
#X obj 162 94 t b b;
#X msg 192 202 open \$1;
#X obj 163 161 tgl 19 0 empty empty empty 0 -10 0 12 #fcfcfc #000000 #000000 0 1;
#X obj 164 269 readsf~ 8, f 19;
#X obj 46 21 r mute-midimix;
#X obj 220 91 r init;
#X floatatom 46 45 5 0 0 0 - - - 0;
#X obj 203 234 print;
#X msg 162 118 1;
#X obj 161 589 clone -s 1 8ch-sepia-vol 8;
#X obj 162 529 hradio 19 1 0 8 empty empty empty 0 -10 0 12 #fcfcfc #000000 #000000 0;
#N canvas 63 101 211 236 vis 0;
#X obj 45 29 inlet;
#X obj 44 78 + 1;
#X obj 45 54 t f b;
#X obj 76 77 tgl 19 0 empty empty empty 0 -10 0 12 #fcfcfc #000000 #000000 0 1;
#X obj 45 104 pack f f;
#X msg 45 134 vis \$1 \$2;
#X obj 46 162 outlet;
#X connect 0 0 2 0;
#X connect 1 0 4 0;
#X connect 2 0 1 0;
#X connect 2 1 3 0;
#X connect 3 0 4 1;
#X connect 4 0 5 0;
#X connect 5 0 6 0;
#X restore 162 558 pd vis;
#X obj 161 489 s~ 1-sepia;
#X obj 178 457 s~ 2-sepia;
#X obj 196 426 s~ 3-sepia;
#X obj 212 398 s~ 4-sepia;
#X obj 229 372 s~ 5-sepia;
#X obj 243 345 s~ 6-sepia;
#X obj 261 319 s~ 7-sepia;
#X obj 277 296 s~ 8-sepia;
#X obj 220 144 makefilename sepia-x8-8ch-cut.wav;
#X obj 162 70 sel 11;
#X connect 0 0 1 0;
#X connect 1 0 25 0;
#X connect 2 0 5 0;
#X connect 3 0 24 0;
#X connect 4 0 12 0;
#X connect 4 1 2 0;
#X connect 5 0 7 0;
#X connect 5 0 11 0;
#X connect 6 0 7 0;
#X connect 7 0 16 0;
#X connect 7 1 17 0;
#X connect 7 2 18 0;
#X connect 7 3 19 0;
#X connect 7 4 20 0;
#X connect 7 5 21 0;
#X connect 7 6 22 0;
#X connect 7 7 23 0;
#X connect 8 0 10 0;
#X connect 9 0 3 0;
#X connect 10 0 6 0;
#X connect 12 0 6 0;
#X connect 14 0 15 0;
#X connect 15 0 13 0;
#X connect 24 0 2 0;
#X connect 25 0 4 0;
#X restore 973 235 pd sepia;
#X obj 797 301 hradio 19 1 0 8 empty empty empty 0 -10 0 12 #fcfcfc #000000 #000000 0;
#N canvas 63 101 211 236 vis 0;
#X obj 45 29 inlet;
#X obj 44 78 + 1;
#X obj 45 54 t f b;
#X obj 76 77 tgl 19 0 empty empty empty 0 -10 0 12 #fcfcfc #000000 #000000 0 1;
#X obj 45 104 pack f f;
#X msg 45 134 vis \$1 \$2;
#X obj 46 162 outlet;
#X connect 0 0 2 0;
#X connect 1 0 4 0;
#X connect 2 0 1 0;
#X connect 2 1 3 0;
#X connect 3 0 4 1;
#X connect 4 0 5 0;
#X connect 5 0 6 0;
#X restore 797 327 pd vis;
#X obj 797 355 clone -s 1 ch-mix 8;
#N canvas 819 262 282 318 mixer 0;
#X obj 43 33 catch~ 8ch-bus 8;
#X obj 43 65 snake~ out 8, f 18;
#X obj 45 271 send~ 1-mix;
#X obj 166 97 send~ 8-mix;
#X obj 148 120 send~ 7-mix;
#X obj 131 146 send~ 6-mix;
#X obj 114 171 send~ 5-mix;
#X obj 96 196 send~ 4-mix;
#X obj 80 220 send~ 3-mix;
#X obj 62 245 send~ 2-mix;
#X connect 0 0 1 0;
#X connect 1 0 2 0;
#X connect 1 1 9 0;
#X connect 1 2 8 0;
#X connect 1 3 7 0;
#X connect 1 4 6 0;
#X connect 1 5 5 0;
#X connect 1 6 4 0;
#X connect 1 7 3 0;
#X restore 797 269 pd mixer;
#X obj 24 193 knob 1 1;
#X obj 24 233 knob 1 2;
#X obj 24 273 knob 1 3;
#X obj 104 193 knob 2 1;
#X obj 104 233 knob 2 2;
#X obj 104 273 knob 2 3;
#X obj 184 193 knob 3 1;
#X obj 184 233 knob 3 2;
#X obj 184 273 knob 3 3;
#X obj 264 193 knob 4 1;
#X obj 264 233 knob 4 2;
#X obj 264 273 knob 4 3;
#X obj 344 193 knob 5 1;
#X obj 344 233 knob 5 2;
#X obj 344 273 knob 5 3;
#X obj 424 193 knob 6 1;
#X obj 424 233 knob 6 2;
#X obj 424 273 knob 6 3;
#X obj 504 193 knob 7 1;
#X obj 504 233 knob 7 2;
#X obj 504 273 knob 7 3;
#X obj 584 193 knob 8 1;
#X obj 584 233 knob 8 2;
#X obj 584 273 knob 8 3;
#X obj 21 335 cnv 19 50 15 empty empty Flute 20 12 0 14 #ffffff #404040 0;
#X obj 193 336 cnv 19 50 15 empty empty Clarinet 0 12 0 14 #ffffff #404040 0;
#X obj 518 336 cnv 19 50 15 empty empty Violin 0 12 0 14 #ffffff #404040 0;
#X obj 362 337 cnv 19 50 15 empty empty Cello 0 12 0 14 #ffffff #404040 0;
#X obj 280 337 cnv 19 50 15 empty empty Vibra 0 12 0 13 #ffffff #404040 0;
#X obj 602 336 cnv 19 50 15 empty empty Piano 0 12 0 14 #ffffff #404040 0;
#N canvas 1089 773 195 181 readme 0;
#X msg 68 87 click;
#X obj 16 87 r init;
#X obj 14 137 text define README;
#X obj 69 39 sel 1 0;
#X msg 116 87 close;
#X obj 69 15 r \$0-info;
#X msg 14 111 read info.txt;
#X connect 0 0 2 0;
#X connect 1 0 6 0;
#X connect 3 0 0 0;
#X connect 3 1 4 0;
#X connect 4 0 2 0;
#X connect 5 0 3 0;
#X connect 6 0 2 0;
#X restore 856 70 pd readme;
#X obj 123 139 bng 20 250 50 0 website none Website -60 10 0 14 #c6ffc7 #ff0400 #000000;
#X obj 124 102 tgl 19 0 \$0-info \$0-info-dummy Info -60 10 0 14 #c6ffc7 #ff0400 #000000 0 1;
#N canvas 351 217 371 130 website 0;
#X obj 28 80 pdcontrol;
#X msg 28 54 browse http://bornhoeft.org/works/nachbild;
#X obj 28 25 r website;
#X connect 1 0 0 0;
#X connect 2 0 1 0;
#X restore 856 98 pd website;
#X connect 5 0 6 0;
#X connect 6 0 31 0;
#X connect 8 0 9 0;
#X connect 9 0 7 0;
#X connect 25 0 27 0;
#X connect 27 0 26 0;
#X connect 30 0 29 0;
#X connect 34 0 35 0;
#X connect 35 0 36 0;
#X coords 0 -1 1 1 770 520 2 5 5;
#X restore 5 5 pd nachbild;
